<?xml version="1.0" encoding="utf-8"?>
<!-- Generator: Adobe Illustrator 22.0.1, SVG Export Plug-In . SVG Version: 6.00 Build 0)  -->
<svg version="1.1" id="レイヤー_1" xmlns="http://www.w3.org/2000/svg" xmlns:xlink="http://www.w3.org/1999/xlink" x="0px"
	 y="0px" viewBox="0 0 15 14" style="enable-background:new 0 0 15 14;" xml:space="preserve">
<style type="text/css">
	.st0{fill:#EA2AA0;}
</style>
<g>
	<path class="st0" d="M10.8,2c0.4,0,0.8,0.1,1.2,0.2c0.4,0.1,0.7,0.4,1,0.6c0.3,0.3,0.5,0.6,0.7,1.1c0.2,0.4,0.3,0.9,0.3,1.5
		c0,0.6-0.1,1.2-0.3,1.7c-0.2,0.5-0.5,0.9-0.8,1.3c-0.3,0.4-0.7,0.7-1.2,1.1c-0.4,0.3-0.9,0.6-1.4,0.9S9.3,11,8.8,11.3
		C8.4,11.6,8,12,7.6,12.4h0c-0.4-0.4-0.8-0.8-1.2-1.1C5.9,11,5.4,10.7,5,10.4C4.5,10,4,9.7,3.6,9.4C3.1,9.1,2.8,8.7,2.4,8.4
		C2.1,8,1.8,7.5,1.6,7.1S1.3,6,1.3,5.4c0-0.6,0.1-1,0.3-1.5c0.2-0.4,0.4-0.8,0.7-1.1s0.6-0.5,1-0.6C3.6,2.1,4,2,4.4,2
		c0.4,0,0.8,0,1.1,0.1s0.6,0.2,0.9,0.4C6.6,2.7,6.8,2.9,7,3.1c0.2,0.2,0.4,0.4,0.5,0.7h0c0.2-0.2,0.3-0.4,0.5-0.7
		c0.2-0.2,0.4-0.4,0.7-0.6C9,2.4,9.3,2.3,9.7,2.2C10,2.1,10.3,2,10.8,2z"/>
</g>
</svg>
